<?xml version="1.0" encoding="utf-8"?>
<!-- Generator: Adobe Illustrator 16.0.0, SVG Export Plug-In . SVG Version: 6.00 Build 0)  -->
<!DOCTYPE svg PUBLIC "-//W3C//DTD SVG 1.1//EN" "http://www.w3.org/Graphics/SVG/1.1/DTD/svg11.dtd">
<svg version="1.1" id="Layer_1" xmlns="http://www.w3.org/2000/svg" xmlns:xlink="http://www.w3.org/1999/xlink" x="0px" y="0px"
	 width="191.5px" height="231px" viewBox="-1 10 191.5 231" enable-background="new -1 10 191.5 231" xml:space="preserve">
<path d="M79.223,61.612h28.523c0.822,0,1.583,0.396,2.04,1.096l5.784,8.645H71.43l5.784-8.645c0.457-0.67,1.217-1.096,2.04-1.096
	H79.223z M133.134,71.353L121.962,54.58c-3.166-4.718-8.494-7.58-14.186-7.58H79.223c-5.692,0-11.02,2.861-14.186,7.58
	L53.866,71.353h-4.17H35.054h-2.436c-4.048,0-7.306,3.257-7.306,7.306c0,4.048,3.257,7.306,7.306,7.306h3.531l7.306,98.841
	c0.761,10.167,9.224,18.052,19.421,18.052h61.247c10.198,0,18.66-7.885,19.422-18.052l7.306-98.841h3.531
	c4.048,0,7.306-3.257,7.306-7.306c0-4.049-3.257-7.306-7.306-7.306h-2.436h-14.642H133.134z M136.208,85.964l-7.245,97.776
	c-0.183,2.557-2.313,4.506-4.87,4.506H62.876c-2.557,0-4.657-1.979-4.871-4.506l-7.214-97.776H136.208L136.208,85.964z"/>
</svg>
